<svg width="127" height="29" viewBox="0 0 127 29" fill="none" xmlns="http://www.w3.org/2000/svg">
<path d="M3.31 18.903L18.06 3.087L14.749 0L0 15.816L3.31 18.903ZM5.792 29L20.54 13.184L17.23 10.097L2.482 25.913L5.792 29ZM37.053 10.784C36.6683 10.3029 36.1742 9.92069 35.612 9.669C35.018 9.393 34.446 9.255 33.894 9.255C33.61 9.255 33.322 9.28 33.03 9.33C32.737 9.38 32.474 9.477 32.24 9.619C32.006 9.761 31.81 9.945 31.65 10.17C31.492 10.396 31.413 10.684 31.413 11.035C31.413 11.335 31.475 11.587 31.601 11.787C31.726 11.987 31.91 12.163 32.152 12.314C32.394 12.464 32.682 12.602 33.017 12.727C33.351 12.853 33.727 12.982 34.145 13.116C34.747 13.316 35.374 13.538 36.025 13.78C36.6618 14.0141 37.2613 14.3391 37.805 14.745C38.34 15.146 38.783 15.644 39.134 16.237C39.484 16.83 39.66 17.57 39.66 18.456C39.66 19.475 39.472 20.356 39.096 21.1C38.7381 21.8221 38.2195 22.4526 37.58 22.943C36.9273 23.4364 36.1874 23.8022 35.399 24.021C34.5755 24.2553 33.7232 24.3731 32.867 24.371C31.597 24.371 30.368 24.151 29.182 23.708C27.995 23.265 27.009 22.634 26.223 21.815L29.031 18.957C29.466 19.492 30.038 19.939 30.748 20.298C31.458 20.658 32.165 20.838 32.867 20.838C33.184 20.838 33.493 20.804 33.794 20.737C34.095 20.67 34.358 20.561 34.584 20.411C34.809 20.261 34.989 20.06 35.123 19.809C35.257 19.559 35.323 19.258 35.323 18.907C35.323 18.573 35.24 18.288 35.073 18.054C34.8791 17.796 34.6361 17.5788 34.358 17.415C33.9942 17.1978 33.6075 17.0214 33.205 16.889C32.745 16.73 32.223 16.559 31.638 16.375C31.0698 16.1911 30.5131 15.9734 29.971 15.723C29.4387 15.4796 28.9481 15.1539 28.517 14.758C28.0829 14.3542 27.7335 13.8681 27.489 13.328C27.23 12.769 27.101 12.088 27.101 11.286C27.101 10.3 27.301 9.456 27.702 8.754C28.0911 8.06529 28.6313 7.47379 29.282 7.024C29.9521 6.56458 30.6993 6.22926 31.488 6.034C32.2989 5.82588 33.1328 5.72039 33.97 5.72C34.972 5.72 35.996 5.904 37.04 6.272C38.085 6.64 39 7.182 39.786 7.902L37.053 10.784ZM46.73 14.52V19.283C46.73 19.868 46.843 20.306 47.068 20.599C47.294 20.891 47.699 21.038 48.284 21.038C48.484 21.038 48.698 21.021 48.924 20.988C49.1175 20.9633 49.3069 20.9129 49.487 20.838L49.537 23.845C49.254 23.945 48.894 24.033 48.46 24.109C48.0293 24.1836 47.5931 24.2211 47.156 24.221C46.32 24.221 45.618 24.117 45.05 23.908C44.482 23.699 44.027 23.398 43.684 23.006C43.3343 22.6 43.0812 22.12 42.944 21.602C42.7874 21.0089 42.7117 20.3974 42.719 19.784V14.52H40.713V11.436H42.693V8.152H46.73V11.436H49.663V14.52H46.73ZM58.964 18.48H58.437C57.986 18.48 57.531 18.501 57.071 18.543C56.611 18.585 56.201 18.665 55.843 18.781C55.5109 18.882 55.2065 19.0579 54.953 19.295C54.719 19.521 54.602 19.818 54.602 20.185C54.602 20.419 54.656 20.62 54.765 20.787C54.873 20.954 55.011 21.087 55.178 21.188C55.345 21.288 55.538 21.359 55.755 21.401C55.972 21.443 56.181 21.464 56.382 21.464C57.217 21.464 57.856 21.234 58.299 20.774C58.742 20.314 58.964 19.692 58.964 18.907V18.481V18.48ZM51.418 13.14C52.1536 12.4381 53.0295 11.9 53.988 11.561C54.9483 11.2133 55.9617 11.0353 56.983 11.035C58.036 11.035 58.926 11.165 59.653 11.424C60.38 11.683 60.969 12.084 61.42 12.627C61.872 13.17 62.202 13.855 62.41 14.683C62.62 15.51 62.724 16.492 62.724 17.628V23.921H58.964V22.592H58.888C58.571 23.11 58.09 23.512 57.447 23.795C56.787 24.0824 56.0738 24.2276 55.354 24.221C54.8294 24.2183 54.3072 24.1511 53.799 24.021C53.2756 23.8921 52.7792 23.6714 52.333 23.369C51.8811 23.0581 51.5079 22.6462 51.243 22.166C50.958 21.664 50.816 21.046 50.816 20.311C50.816 19.408 51.063 18.681 51.556 18.13C52.049 17.578 52.684 17.152 53.461 16.851C54.238 16.551 55.103 16.35 56.056 16.25C57.008 16.15 57.936 16.099 58.838 16.099V15.899C58.838 15.28 58.621 14.825 58.187 14.532C57.752 14.24 57.217 14.093 56.582 14.093C55.997 14.093 55.433 14.219 54.89 14.47C54.3823 14.6972 53.9128 15.0014 53.498 15.372L51.418 13.141V13.14ZM70.106 14.52V19.283C70.106 19.868 70.218 20.306 70.444 20.599C70.669 20.891 71.074 21.038 71.66 21.038C71.86 21.038 72.073 21.021 72.299 20.988C72.525 20.954 72.713 20.904 72.863 20.838L72.913 23.845C72.629 23.945 72.27 24.033 71.835 24.109C71.4047 24.1836 70.9687 24.221 70.532 24.221C69.696 24.221 68.994 24.117 68.426 23.908C67.858 23.699 67.402 23.398 67.06 23.006C66.7102 22.6001 66.4571 22.12 66.32 21.602C66.1631 21.009 66.0871 20.3974 66.094 19.784V14.52H64.09V11.436H66.07V8.152H70.107V11.436H73.04V14.52H70.107H70.106ZM79.431 7.45C79.431 7.768 79.368 8.064 79.243 8.34C79.1233 8.6082 78.9532 8.85092 78.742 9.055C78.2889 9.47558 77.6932 9.70859 77.075 9.707C76.406 9.707 75.846 9.485 75.395 9.042C75.1781 8.83792 75.006 8.59105 74.8895 8.31702C74.7729 8.04299 74.7146 7.74776 74.718 7.45C74.718 7.15 74.777 6.861 74.894 6.585C75.011 6.31 75.178 6.071 75.395 5.871C75.612 5.671 75.863 5.507 76.147 5.382C76.431 5.257 76.74 5.194 77.075 5.194C77.392 5.194 77.697 5.252 77.99 5.369C78.282 5.486 78.533 5.645 78.742 5.846C78.951 6.046 79.118 6.285 79.243 6.56C79.369 6.836 79.431 7.133 79.431 7.45ZM75.02 23.92V11.437H79.131V23.922H75.02V23.92ZM90.293 15.472C90.0391 15.1559 89.712 14.9063 89.34 14.745C88.9555 14.5652 88.5365 14.4713 88.112 14.47C87.677 14.47 87.284 14.557 86.933 14.733C86.5882 14.9039 86.2814 15.1427 86.031 15.435C85.781 15.727 85.584 16.065 85.441 16.45C85.2977 16.8434 85.2259 17.2593 85.229 17.678C85.229 18.113 85.296 18.522 85.429 18.907C85.5569 19.2809 85.7574 19.6258 86.019 19.922C86.277 20.215 86.587 20.444 86.946 20.612C87.306 20.779 87.711 20.862 88.162 20.862C88.58 20.862 88.993 20.782 89.402 20.624C89.812 20.465 90.142 20.235 90.392 19.934L92.674 22.717C92.156 23.219 91.488 23.611 90.669 23.895C89.8298 24.1828 88.9481 24.3272 88.061 24.322C87.123 24.3296 86.1905 24.1767 85.304 23.87C84.4822 23.5875 83.727 23.1396 83.085 22.554C82.4512 21.9673 81.9473 21.2543 81.606 20.461C81.246 19.642 81.067 18.715 81.067 17.678C81.067 16.658 81.247 15.74 81.607 14.921C81.9481 14.1278 82.4515 13.4148 83.085 12.828C83.7284 12.2409 84.4829 11.7886 85.304 11.498C86.6093 11.0322 88.0137 10.9157 89.378 11.16C89.821 11.244 90.247 11.357 90.656 11.499C91.066 11.641 91.442 11.816 91.784 12.025C92.127 12.235 92.424 12.464 92.674 12.715L90.293 15.472ZM105.384 23.921L98.791 15.748H98.741V23.921H94.529V6.17H98.741V13.39H98.816L105.159 6.17H110.523L102.877 14.343L110.975 23.92H105.384V23.921ZM116.59 7.451C116.59 7.768 116.528 8.064 116.402 8.341C116.282 8.60892 116.112 8.85133 115.901 9.055C115.448 9.47523 114.852 9.70819 114.234 9.707C113.565 9.707 113.005 9.485 112.554 9.042C112.337 8.83788 112.165 8.59101 112.049 8.31699C111.932 8.04297 111.874 7.74775 111.877 7.45C111.877 7.15 111.936 6.861 112.053 6.585C112.17 6.31 112.337 6.071 112.554 5.871C112.771 5.671 113.022 5.507 113.306 5.382C113.59 5.257 113.899 5.194 114.234 5.194C114.852 5.19281 115.448 5.42577 115.901 5.846C116.11 6.046 116.277 6.285 116.402 6.56C116.528 6.836 116.59 7.133 116.59 7.45V7.451ZM112.178 23.921V11.436H116.289V23.921H112.178ZM124.011 14.52V19.283C124.011 19.868 124.123 20.306 124.349 20.599C124.575 20.891 124.98 21.038 125.565 21.038C125.765 21.038 125.979 21.021 126.204 20.988C126.398 20.9635 126.588 20.9131 126.768 20.838L126.818 23.845C126.534 23.945 126.175 24.033 125.74 24.109C125.31 24.1836 124.874 24.2211 124.437 24.221C123.601 24.221 122.899 24.117 122.331 23.908C121.763 23.699 121.307 23.398 120.965 23.006C120.615 22.6 120.362 22.1199 120.225 21.602C120.069 21.0089 119.993 20.3974 120 19.784V14.52H117.994V11.436H119.975V8.152H124.011V11.436H126.944V14.52H124.011Z" fill="#312E81"/>
</svg>
